# xmcd
#
# Track frame offsets:
#	150
#	11542
#	23132
#	36375
#	48897
#	60412
#	73100
#	85845
#	97245
#	109362
#	122135
#	134000
#	146985
#	160782
#	171107
#	184980
#	195982
#	208227
#	221955
#	236195
#	247835
#	261885
#	274480
#
# Disc length: 3843 seconds
#
# Revision: 1
# Processed by: cddbd v1.5.1PL0 Copyright (c) Steve Scherf et al.
# Submitted via: audiograbber 1.83.01
#
DISCID=690f0117
DTITLE=Ray Charles - Members Edition
DYEAR=1900
DGENRE=Blues
TTITLE0=Let's Have a Ball
TTITLE1=How Long
TTITLE2=Alone in the City
TTITLE3=Rockin' Chair Blues
TTITLE4=Ray Charles Blues
TTITLE5=Can Anyone Ask For More
TTITLE6=You Always Miss the Water
TTITLE7=She's on the Ball
TTITLE8=Going Down SLow
TTITLE9=Don't Put All Your Dreams in One Basket
TTITLE10=Can't You See
TTITLE11=Baby Won't You Please Come Home
TTITLE12=I'm Gonna Drown Myself
TTITLE13=Ain't That Fine
TTITLE14=Some Day (blues is my middle name)
TTITLE15=A Sentimental BLues
TTITLE16=Honey Honey
TTITLE17=This Love of Mine
TTITLE18=Kissa Me Baby
TTITLE19=Guitar Blues
TTITLE20=Walkin and Talkin
TTITLE21=(I'm Just a) Lonely Boy
TTITLE22=Late In the Evening
EXTD=
EXTT0=
EXTT1=
EXTT2=
EXTT3=
EXTT4=
EXTT5=
EXTT6=
EXTT7=
EXTT8=
EXTT9=
EXTT10=
EXTT11=
EXTT12=
EXTT13=
EXTT14=
EXTT15=
EXTT16=
EXTT17=
EXTT18=
EXTT19=
EXTT20=
EXTT21=
EXTT22=
PLAYORDER=
